<?xml version="1.0" encoding="UTF-8"?>
<svg xmlns="http://www.w3.org/2000/svg" xmlns:xlink="http://www.w3.org/1999/xlink" width="24pt" height="24pt" viewBox="0 0 24 24" version="1.1">
<g id="surface1">
<path style=" stroke:none;fill-rule:nonzero;fill:rgb(22.745098%,25.882353%,28.627451%);fill-opacity:1;" d="M 17.324219 9.976562 C 16.988281 9.488281 16.425781 9.675781 16.085938 9.75 C 16.011719 9.789062 15.9375 9.789062 15.863281 9.824219 C 15.863281 9.75 15.898438 9.675781 15.9375 9.601562 C 16.050781 9.226562 16.238281 8.699219 15.75 8.363281 C 15.300781 8.0625 14.851562 8.398438 14.550781 8.625 C 14.511719 8.664062 14.4375 8.699219 14.398438 8.738281 C 14.398438 8.664062 14.398438 8.585938 14.398438 8.550781 C 14.398438 8.210938 14.363281 7.613281 13.800781 7.460938 C 13.273438 7.351562 12.976562 7.835938 12.75 8.136719 C 12.710938 8.175781 12.675781 8.25 12.636719 8.289062 C 12.601562 8.210938 12.601562 8.175781 12.5625 8.101562 C 12.414062 7.761719 12.226562 7.238281 11.625 7.273438 C 11.0625 7.351562 10.949219 7.914062 10.875 8.25 C 10.875 8.289062 10.835938 8.363281 10.835938 8.4375 C 10.800781 8.398438 10.761719 8.324219 10.726562 8.289062 C 10.460938 7.988281 10.085938 7.574219 9.5625 7.800781 C 9.074219 8.0625 9.148438 8.625 9.1875 9 C 9.1875 9.074219 9.226562 9.148438 9.226562 9.226562 C 9.148438 9.1875 9.113281 9.148438 9.039062 9.148438 C 8.738281 9 8.175781 8.699219 7.761719 9.113281 C 7.386719 9.523438 7.648438 10.011719 7.835938 10.351562 C 7.875 10.425781 7.914062 10.539062 7.949219 10.613281 C 7.875 10.613281 7.761719 10.613281 7.6875 10.613281 C 7.3125 10.574219 6.710938 10.539062 6.488281 11.101562 C 6.414062 11.289062 6.488281 11.511719 6.675781 11.585938 C 6.863281 11.664062 7.085938 11.585938 7.164062 11.398438 C 7.199219 11.324219 7.460938 11.363281 7.613281 11.363281 C 7.949219 11.398438 8.363281 11.398438 8.585938 11.0625 C 8.8125 10.726562 8.625 10.3125 8.476562 10.011719 C 8.4375 9.898438 8.324219 9.710938 8.324219 9.636719 C 8.398438 9.636719 8.585938 9.75 8.699219 9.789062 C 9 9.9375 9.375 10.125 9.710938 9.898438 C 10.050781 9.675781 10.011719 9.226562 9.9375 8.886719 C 9.9375 8.773438 9.898438 8.585938 9.898438 8.511719 C 9.976562 8.585938 10.085938 8.699219 10.164062 8.773438 C 10.386719 9.039062 10.6875 9.335938 11.0625 9.226562 C 11.476562 9.113281 11.550781 8.699219 11.625 8.363281 C 11.664062 8.25 11.699219 8.101562 11.699219 8.023438 C 11.738281 8.101562 11.8125 8.25 11.851562 8.363281 C 11.960938 8.699219 12.148438 9.074219 12.523438 9.113281 C 12.9375 9.148438 13.164062 8.773438 13.351562 8.511719 C 13.386719 8.4375 13.5 8.289062 13.539062 8.210938 C 13.574219 8.324219 13.574219 8.476562 13.574219 8.585938 C 13.574219 8.925781 13.613281 9.375 13.988281 9.523438 C 14.363281 9.710938 14.699219 9.449219 14.960938 9.226562 C 15.039062 9.148438 15.1875 9.039062 15.261719 9 C 15.261719 9.113281 15.1875 9.261719 15.148438 9.375 C 15.039062 9.710938 14.925781 10.125 15.1875 10.386719 C 15.488281 10.6875 15.898438 10.574219 16.199219 10.5 C 16.3125 10.460938 16.574219 10.386719 16.613281 10.386719 C 16.613281 10.460938 16.460938 10.648438 16.386719 10.761719 C 16.199219 11.023438 15.898438 11.398438 16.085938 11.773438 C 16.164062 11.925781 16.273438 12 16.425781 12 C 16.460938 12 16.539062 12 16.574219 11.960938 C 16.761719 11.886719 16.835938 11.699219 16.761719 11.511719 C 16.800781 11.4375 16.875 11.289062 16.949219 11.210938 C 17.289062 10.914062 17.625 10.460938 17.324219 9.976562 Z M 17.324219 9.976562 "/>
<path style=" stroke:none;fill-rule:nonzero;fill:rgb(22.745098%,25.882353%,28.627451%);fill-opacity:1;" d="M 21.335938 16.085938 C 20.925781 15.824219 20.398438 15.898438 20.0625 16.199219 L 19.011719 15.601562 C 19.386719 14.851562 19.648438 14.0625 19.800781 13.199219 L 21.300781 13.351562 L 21.375 12.601562 L 19.875 12.449219 C 19.875 12.300781 19.914062 12.148438 19.914062 12 C 19.914062 11.851562 19.914062 11.699219 19.875 11.550781 L 21.375 11.398438 L 21.300781 10.648438 L 19.800781 10.800781 C 19.6875 9.9375 19.386719 9.148438 19.011719 8.398438 L 20.0625 7.800781 C 20.398438 8.101562 20.925781 8.175781 21.335938 7.914062 C 21.863281 7.613281 22.050781 6.898438 21.75 6.375 C 21.449219 5.851562 20.738281 5.664062 20.210938 5.960938 C 19.800781 6.226562 19.574219 6.675781 19.6875 7.125 L 18.636719 7.726562 C 18.1875 7.011719 17.585938 6.375 16.949219 5.851562 L 17.851562 4.613281 L 17.25 4.164062 L 16.351562 5.398438 C 16.085938 5.25 15.824219 5.101562 15.5625 4.949219 L 16.164062 3.5625 L 15.488281 3.261719 L 14.886719 4.648438 C 14.101562 4.351562 13.273438 4.164062 12.414062 4.125 L 12.414062 2.925781 C 12.863281 2.773438 13.164062 2.363281 13.164062 1.875 C 13.164062 1.238281 12.675781 0.75 12.039062 0.75 C 11.398438 0.75 10.914062 1.238281 10.914062 1.875 C 10.914062 2.363281 11.210938 2.773438 11.664062 2.925781 L 11.664062 4.125 C 10.800781 4.164062 9.976562 4.351562 9.1875 4.648438 L 8.585938 3.261719 L 7.914062 3.5625 L 8.511719 4.949219 C 8.25 5.101562 7.988281 5.25 7.726562 5.398438 L 6.824219 4.164062 L 6.226562 4.613281 L 7.125 5.851562 C 6.449219 6.375 5.886719 7.011719 5.4375 7.726562 L 4.351562 7.125 C 4.425781 6.675781 4.238281 6.1875 3.824219 5.960938 C 3.261719 5.664062 2.550781 5.851562 2.25 6.375 C 1.949219 6.898438 2.136719 7.613281 2.664062 7.914062 C 3.074219 8.175781 3.601562 8.101562 3.9375 7.800781 L 4.988281 8.398438 C 4.613281 9.148438 4.351562 9.9375 4.199219 10.800781 L 2.699219 10.648438 L 2.625 11.398438 L 4.125 11.550781 C 4.125 11.699219 4.085938 11.851562 4.085938 12 C 4.085938 12.148438 4.085938 12.300781 4.125 12.449219 L 2.625 12.601562 L 2.699219 13.351562 L 4.199219 13.199219 C 4.3125 14.0625 4.613281 14.851562 4.988281 15.601562 L 3.9375 16.199219 C 3.601562 15.898438 3.074219 15.824219 2.664062 16.085938 C 2.136719 16.386719 1.949219 17.101562 2.25 17.625 C 2.550781 18.148438 3.261719 18.335938 3.789062 18.039062 C 4.199219 17.773438 4.425781 17.324219 4.3125 16.875 L 5.363281 16.273438 C 5.8125 16.988281 6.414062 17.625 7.050781 18.148438 L 6.148438 19.386719 L 6.75 19.835938 L 7.648438 18.601562 C 7.914062 18.75 8.175781 18.898438 8.4375 19.050781 L 7.835938 20.4375 L 8.511719 20.738281 L 9.113281 19.351562 C 9.898438 19.648438 10.726562 19.835938 11.585938 19.875 L 11.585938 21.074219 C 11.136719 21.226562 10.835938 21.636719 10.835938 22.125 C 10.835938 22.761719 11.324219 23.25 11.960938 23.25 C 12.601562 23.25 13.085938 22.761719 13.085938 22.125 C 13.085938 21.636719 12.789062 21.226562 12.335938 21.074219 L 12.335938 19.875 C 13.199219 19.835938 14.023438 19.648438 14.8125 19.351562 L 15.414062 20.738281 L 16.085938 20.4375 L 15.488281 19.050781 C 15.75 18.898438 16.011719 18.75 16.273438 18.601562 L 17.175781 19.835938 L 17.773438 19.386719 L 16.875 18.148438 C 17.550781 17.625 18.113281 16.988281 18.5625 16.273438 L 19.613281 16.875 C 19.539062 17.324219 19.726562 17.8125 20.136719 18.039062 C 20.664062 18.335938 21.375 18.148438 21.675781 17.625 C 21.976562 17.101562 21.863281 16.386719 21.335938 16.085938 Z M 16.5 17.550781 L 16.050781 16.949219 L 15.449219 17.398438 L 15.898438 18 C 15.675781 18.148438 15.488281 18.261719 15.261719 18.375 L 14.960938 17.699219 L 14.25 17.960938 L 14.550781 18.636719 C 13.875 18.898438 13.125 19.050781 12.375 19.085938 L 12.375 18.375 L 11.625 18.375 L 11.625 19.085938 C 10.875 19.050781 10.125 18.898438 9.449219 18.636719 L 9.75 17.960938 L 9.074219 17.664062 L 8.773438 18.335938 C 8.550781 18.226562 8.324219 18.113281 8.136719 17.960938 L 8.585938 17.363281 L 7.988281 16.914062 L 7.5 17.550781 C 6.9375 17.0625 6.414062 16.539062 6 15.898438 L 6.636719 15.523438 L 6.261719 14.886719 L 5.625 15.261719 C 5.289062 14.625 5.0625 13.914062 4.949219 13.164062 L 5.664062 13.085938 L 5.585938 12.335938 L 4.914062 12.375 C 4.914062 12.261719 4.875 12.113281 4.875 12 C 4.875 11.886719 4.875 11.738281 4.914062 11.625 L 5.625 11.699219 L 5.699219 10.949219 L 4.988281 10.875 C 5.101562 10.125 5.324219 9.414062 5.664062 8.773438 L 6.300781 9.148438 L 6.675781 8.511719 L 6.039062 8.136719 C 6.449219 7.5 6.9375 6.9375 7.539062 6.488281 L 7.988281 7.085938 L 8.585938 6.636719 L 8.136719 6.039062 C 8.363281 5.886719 8.550781 5.773438 8.773438 5.664062 L 9.074219 6.335938 L 9.75 6.039062 L 9.449219 5.363281 C 10.125 5.101562 10.875 4.949219 11.625 4.914062 L 11.625 5.625 L 12.375 5.625 L 12.375 4.914062 C 13.125 4.949219 13.875 5.101562 14.550781 5.363281 L 14.25 6.039062 L 14.925781 6.335938 L 15.226562 5.664062 C 15.449219 5.773438 15.675781 5.886719 15.863281 6.039062 L 15.414062 6.636719 L 16.011719 7.085938 L 16.460938 6.488281 C 17.023438 6.976562 17.550781 7.5 17.960938 8.136719 L 17.324219 8.511719 L 17.699219 9.148438 L 18.335938 8.773438 C 18.675781 9.414062 18.898438 10.125 19.011719 10.875 L 18.300781 10.949219 L 18.375 11.699219 L 19.085938 11.625 C 19.085938 11.738281 19.125 11.886719 19.125 12 C 19.125 12.113281 19.125 12.261719 19.085938 12.375 L 18.375 12.300781 L 18.300781 13.050781 L 19.011719 13.125 C 18.898438 13.875 18.675781 14.585938 18.335938 15.226562 L 17.699219 14.851562 L 17.324219 15.488281 L 17.960938 15.863281 C 17.550781 16.5 17.0625 17.0625 16.5 17.550781 Z M 16.5 17.550781 "/>
</g>
</svg>
